<?xml version="1.0" ?><!DOCTYPE svg  PUBLIC '-//W3C//DTD SVG 1.1//EN'  'http://www.w3.org/Graphics/SVG/1.1/DTD/svg11.dtd'><svg enable-background="new 0 0 256 256" height="256px" id="Layer_1" version="1.1" viewBox="0 0 256 256" width="256px" xml:space="preserve" xmlns="http://www.w3.org/2000/svg" xmlns:xlink="http://www.w3.org/1999/xlink"><g><g><path d="M6014.006,3088.267h115.998v8h-115.998V3088.267L6014.006,3088.267z M6048.253,3026.123     c-2.175-2.484-1.923-6.263,0.562-8.438c2.484-2.174,6.263-1.923,8.438,0.562l16.271,18.547l45.498-40.653     c2.459-2.2,6.237-1.99,8.438,0.469c2.2,2.46,1.99,6.237-0.469,8.438l-49.842,44.535c-2.553,2.361-6.387,2.202-8.644-0.374     L6048.253,3026.123L6048.253,3026.123z M6072.014,2998.379c10.475-10.643,25.578-12.281,37.713-4.441     c-2.024,1.9-4.078,3.773-6.157,5.619c-10.026-5.205-21.213-2.217-28.413,7.275c-1.557,2.053-4.669,2.139-6.276,0.035     c-15.156-19.851-40.915-6.9-40.915,13.002c0,7.413,5.26,15.944,12.542,23.895c9.404,10.267,22.021,19.332,31.499,24.08     c9.477-4.748,22.093-13.813,31.498-24.08c5.055-5.52,9.135-11.318,11.158-16.83c3.139-2.643,6.238-5.336,9.286-8.084     c0.739,23.19-32.893,48.947-50.288,57.045c-1.092,0.51-2.297,0.472-3.311,0l0,0c-17.119-7.961-50.305-33.479-50.305-56.025     C6020.045,2993.699,6051.933,2977.85,6072.014,2998.379L6072.014,2998.379z M6014.006,3109.271h115.998v8h-115.998V3109.271     L6014.006,3109.271z" fill="#2B79C2"/><path d="M5992.949,2935.275h26.056v12h-26.056c-2.193,0-4.192,0.902-5.646,2.354     c-1.452,1.452-2.354,3.451-2.354,5.646v187.998c0,4.387,3.613,8,7.999,8h158.111c4.384,0,8-3.615,8-8v-187.998     c0-2.192-0.902-4.192-2.355-5.645c-1.453-1.453-3.452-2.355-5.645-2.355h-26.055v-12h26.055c5.506,0,10.507,2.249,14.129,5.871     c3.621,3.622,5.871,8.625,5.871,14.129v187.998c0,11.008-8.993,20-20,20h-158.111c-11.009,0-20-8.99-20-20v-187.998     c0-5.506,2.249-10.508,5.871-14.129C5982.442,2937.523,5987.443,2935.275,5992.949,2935.275L5992.949,2935.275z      M6072.006,2907.287c5.797,0,11.047,0.352,14.848,4.151c3.8,3.801,6.151,9.051,6.151,14.849l0,0h24.001v30h-90v-30h23.999l0,0     c0-5.798,2.351-11.048,6.151-14.849C6060.957,2907.639,6066.207,2907.287,6072.006,2907.287L6072.006,2907.287z      M6078.369,2919.923c-1.628-1.628-3.878-2.636-6.363-2.636c-2.486,0-4.737,1.008-6.365,2.636s-2.635,3.878-2.635,6.364     s1.007,4.736,2.635,6.364c1.525,1.526,3.6,2.507,5.901,2.624h0.926c2.302-0.117,4.376-1.098,5.901-2.624     c1.629-1.628,2.636-3.878,2.636-6.364S6079.998,2921.551,6078.369,2919.923L6078.369,2919.923z" fill="#3B4652"/></g><path clip-rule="evenodd" d="M31.011,213.001c6.627,0,12,5.372,12,12c0,6.627-5.373,12-12,12    c-6.627,0-12-5.373-12-12C19.011,218.373,24.385,213.001,31.011,213.001L31.011,213.001z M151.011,213.001c6.629,0,12,5.372,12,12    c0,6.627-5.371,12-12,12c-6.627,0-11.998-5.373-11.998-12C139.013,218.373,144.385,213.001,151.011,213.001L151.011,213.001z     M91.01,213.001c6.627,0,12,5.372,12,12c0,6.627-5.373,12-12,12c-6.627,0-12-5.373-12-12    C79.01,218.373,84.383,213.001,91.01,213.001L91.01,213.001z M151.011,194c8.561,0,16.311,3.471,21.92,9.081    c5.611,5.61,9.08,13.359,9.08,21.92c0,8.559-3.469,16.31-9.08,21.919c-5.609,5.61-13.359,9.08-21.92,9.08h-120    c-8.56,0-16.31-3.47-21.92-9.08c-5.609-5.609-9.08-13.36-9.08-21.919c0-8.561,3.471-16.31,9.08-21.92    c5.609-5.61,13.359-9.081,21.92-9.081l0.088,0.001L151.011,194L151.011,194z M16.011,123.999h52.416l3.656-26.795    c0.398-2.963,2.934-5.206,5.93-5.203h41.998c2.797,0,5.146,1.913,5.812,4.501l21.813,60.484c0.57,1.579,0.455,3.317-0.328,4.805    l-10,18.999c-1.07,2.033-3.145,3.195-5.291,3.198l-0.006,0.013h-116c-8.809,0-16-7.188-16-15.999v-28.003    C0.011,131.186,7.199,123.999,16.011,123.999L16.011,123.999z M235.988,144.547c5.092,3.262,9.086,6.913,12.121,10.711    c5.58,6.983,7.916,14.478,7.879,21.09c-0.061,10.82-6.717,20.453-17.221,27.268c-15.609,10.125-30.191,10.387-47.756,10.387    c-2.209,0-4-1.791-4-4c0-2.209,1.791-4,4-4h4.506L219.16,145.4l-32.752-85.686l-35.564,74.686l-15.49-42.954    c-0.084-0.278-0.174-0.553-0.27-0.823l43.432-77.032c0.93-2.115,3.039-3.591,5.496-3.591h6v0.018c2.531,0,4.881,1.616,5.695,4.154    l40,124c0.191,0.591,0.281,1.21,0.281,1.828V144.547L235.988,144.547z M230.011,149.002c4.418,0,8,3.581,8,7.999    c0,4.418-3.582,8-8,8c-4.418,0-8-3.582-8-8C222.011,152.583,225.594,149.002,230.011,149.002L230.011,149.002z M91.746,104.001    l-2.404,46.46l13.939,13.539h29.334l2.877-5.465l-19.668-54.535H91.746L91.746,104.001z M16.011,146.001c-2.209,0-4-1.79-4-4    c0-2.208,1.791-3.999,4-3.999h46.901c2.209,0,4,1.791,4,3.999c0,2.21-1.791,4-4,4H16.011L16.011,146.001z M164.449,211.565    c-3.438-3.438-8.189-5.564-13.438-5.564l0,0h-0.098c-5.207,0.027-9.922,2.148-13.338,5.564c-3.438,3.438-5.562,8.188-5.562,13.436    c0,5.247,2.125,9.998,5.562,13.435c3.428,3.427,8.16,5.551,13.387,5.564h0.049c5.248,0,10-2.126,13.438-5.564    c3.438-3.437,5.562-8.188,5.562-13.435C170.011,219.753,167.886,215.003,164.449,211.565L164.449,211.565z M126.517,244    c-4.076-5.248-6.504-11.841-6.504-18.999c0-7.159,2.428-13.752,6.504-19h-71.01c4.076,5.248,6.504,11.841,6.504,19    c0,7.158-2.428,13.751-6.506,18.999H126.517L126.517,244z M44.447,211.565c-3.605-3.606-8.346-5.535-13.436-5.564    c-5.248,0-9.998,2.127-13.435,5.564s-5.565,8.188-5.565,13.436c0,5.247,2.127,9.998,5.565,13.435    C21.178,242.038,25.97,244,31.06,244c5.229-0.013,9.959-2.137,13.387-5.564c3.438-3.437,5.564-8.188,5.564-13.435    C50.011,219.753,47.885,215.003,44.447,211.565L44.447,211.565z" fill="#373737" fill-rule="evenodd"/></g></svg>