<svg xmlns="http://www.w3.org/2000/svg" viewBox="0 0 1424.34 1614.08"><defs><style>.cls-1{fill:#131515;}.cls-2{fill:#fdfa02;}</style></defs><title>Asset 1svg</title><g id="Layer_2" data-name="Layer 2"><g id="Layer_1-2" data-name="Layer 1"><path class="cls-1" d="M1424.34,784.58c-1.48.84-.68,2.23-.69,3.33-.09,9.37-.18,18.75,0,28.12a45.45,45.45,0,0,1-.87,7.33c-.5,3.37-3.65,3.73-6.19,3.89-5.8.37-11.64.62-17.43,1-9,.62-18-.64-26.83.69-4.22.63-8.26.16-12.36-.18-3.4-.28-6.64.66-10,.84-8.72.46-17.37-1-26.08-.82-7.78.12-15.5.63-23.24,1.31-1.9.16-4,0-6,.21-2.7.21-3.66,1.78-3.91,4.3-1.49,15.15-2.31,30.42-4.84,45.41-2.07,12.3-4.06,24.67-6.69,36.92-2.22,10.35-5,20.57-7.12,30.92-.84,4.08,1.39,8.18,5.91,9.89,11.39,4.3,22.47,9.52,34.4,12.29,6.29,1.46,12.07,4.36,18.12,6.15s12.49,3,18.57,4.94c14,4.52,27.86,9.43,41.79,14.17,3.19,1.09,4.57,2.58,3.64,6.52-2.28,9.7-5.69,19-8.69,28.48q-6.52,20.63-14.92,40.58c-3.39,8-6.54,16.14-10.26,24-3.38,7.19-6.7,14.38-10.26,21.49-2.3,4.62-4.94,9.17-6.37,14.24-1.12,3.95-3,4.91-6.81,3.39a200.76,200.76,0,0,1-21.87-10.29c-9.05-4.88-18-10-27.25-14.46-5-2.42-9.52-5.7-14.6-7.93-8.61-3.78-16.59-8.8-25.07-12.84-5.45-2.6-10.92-5.12-15.9-8.58-5.77-4-11.08-2.42-14.77,3.7q-12.09,20-24.72,39.77c-8.64,13.51-18.55,26.15-28,39.12a190.39,190.39,0,0,1-14,16.35c-6.17,6.76-6.27,9.67.87,15.35,8,6.36,14.23,14.32,21,21.76,3.12,3.41,6.67,6.3,10,9.44,14,13.23,28.61,25.72,43,38.52,3.72,3.32,7.19,7,10.62,10.57,2.52,2.65,2.37,5.73,0,8.58-6.7,8-13.86,15.59-21.31,22.89-8.18,8-16.3,16.07-24.68,23.86a473.35,473.35,0,0,1-36.24,30.51c-4.29,3.26-8.53,6.69-12.75,10.08-3.78,3-7.5,6.32-12,8.48-3.86,1.86-6.36,1.59-8.59-1.89-4.94-7.75-10.82-14.82-16.55-21.91-4.17-5.15-8.56-10.25-12.48-15.55-5.26-7.1-10.45-14.29-15.71-21.42-7-9.43-14-18.79-22.12-27.33-1.43-1.51-2.58-3.28-4-4.78-4-4.12-8.36-3.81-13.37-1.83-11.1,4.37-21.14,10.54-31.27,16.73-8.84,5.41-18.08,10.17-27.39,14.8-6.76,3.36-13.49,6.86-20.11,10.53-5,2.75-10.76,3.68-15.47,7-2.12,1.5-4.18,2.44-2.91,6.06,3.86,11.06,7,22.36,11.08,33.36,3.78,10.16,7.72,20.28,11.07,30.59,2.61,8,6.2,15.69,8.91,23.69,2.8,8.25,6.09,16.35,8.77,24.64,2.09,6.46.72,8.74-6.16,11.71-7.62,3.3-15.12,7-23,9.55-7.65,2.48-15.23,5.2-22.74,8-10.54,3.89-21.26,7-32.07,9.85-5.95,1.56-12,2.53-18,4.13-9.45,2.54-19.07,4.15-28.66,6-3.84.73-5.52-.7-6.62-4.51-3.14-10.84-3.52-22.16-5.92-33.11a257.07,257.07,0,0,1-4.85-28.35,9.76,9.76,0,0,1,3.13-8.54c11-10.54,22.91-20.24,31.69-33,4.67-6.8,9.69-13.37,14.29-20.23a119.21,119.21,0,0,0,16.47-35.93c1.27-4.8,3.19-9.43,3.77-14.4.94-8,2.56-15.94,3.17-24,.87-11.5.93-23,1.5-34.51.42-8.58.85-17.18,1.48-25.74s.14-17.35,1.33-26a7.69,7.69,0,0,1,4.49-6.52c15.58-7.83,31-15.87,45.65-25.44,9.48-6.2,19.26-12.06,28.16-19,7.73-6,15.42-12.22,22.87-18.67,2.06-1.78,4.17-3.49,6.1-5.42,11.46-11.5,23.08-22.84,34.35-34.52,4.86-5,9.06-10.72,13.46-16.2,3.49-4.35,6.84-8.81,10.24-13.24.44-.58,1.27-1.32,1.15-1.8-.87-3.52,2.09-3.9,4-5.2a6.78,6.78,0,0,0,1.9-1.75c6.83-10.44,13.74-20.83,20.39-31.39,8.57-13.59,15.51-28.07,22.44-42.52,6.76-14.1,11.86-28.9,17.3-43.54,5.3-14.27,8.76-29.1,12.37-43.81a355.57,355.57,0,0,0,6.56-37.21c1.59-11.85,2.52-23.72,3.57-35.59,1.57-17.83.81-35.7.58-53.54-.15-10.77-1.55-21.56-2.94-32.26-1.1-8.47-2.67-16.91-4-25.35a400.08,400.08,0,0,0-13.2-53.92c-3.93-12.66-7.71-25.4-13-37.68-4.92-11.28-9.9-22.59-15.75-33.3-6.23-11.39-12.79-22.69-19.92-33.62-5.55-8.51-11.24-16.88-17-25.21-7.26-10.43-15.33-20.2-23.53-29.88-6.35-7.5-12.65-15.15-19.8-21.86s-14.12-13.51-21.47-20-14.76-12.92-22.5-18.94c-12.2-9.5-24.61-18.74-38-26.57a52.31,52.31,0,0,1-5.75-3.9c-1.43-1.12-1.82-2.78-1.89-4.63-.45-12.59.64-25.14,1-37.71.26-10.62,1.06-21.25,1.57-31.88s.72-21.48,1.5-32.17c.75-10.17.41-20.41,1.94-30.54.7-4.64,2.18-5.63,6.6-3.76,6.8,2.87,13.16,6.65,20.23,9,4,1.32,6.25.05,8.06-3,4.54-7.66,9.14-15.3,13.37-23.14,5.88-10.88,12.92-21.05,19.06-31.77,5.57-9.75,12-19,16.87-29.15,3.32-6.92,7.46-13.45,11.13-20.21,1.86-3.44,4.43-3.8,7.73-2.35,9.56,4.22,18.22,10,27.26,15.18,14.49,8.25,28.08,17.9,41.91,27.15,8.56,5.72,16.27,12.67,24.51,18.88,5.72,4.32,10.92,9.22,16.19,14,3.94,3.6,4,5,.68,9.36q-7.3,9.48-15,18.64c-6,7.16-11.37,14.85-17,22.32-7.66,10.14-14.68,20.75-22.39,30.87-4.53,6-9,12-13.91,17.58a38.47,38.47,0,0,0-4.25,6.33c-1.49,2.56-.9,5.05,1.08,7.06,5.94,6,12.05,11.88,17.94,17.95,8.7,9,18.09,17.25,25.84,27.16,4.49,5.74,9.83,10.8,14.63,16.31a204.88,204.88,0,0,1,14.16,17.44,61,61,0,0,0,8.59,9.65c4.38,4.11,7.9,4.26,12.81.73q16.58-11.87,33-24c12.19-9,24.24-18.26,36.4-27.33,7.56-5.63,15.15-11.22,22.87-16.63,4.39-3.08,7.77-2.49,10.89,1.83,9.43,13,18.9,26,26.48,40.38,4.31,8.14,10.42,15.32,15,23.44,7.12,12.73,13.53,25.82,20.07,38.85,1.62,3.24,2.84,6.67,4.39,10,3.53,7.42,1.43,8.56-4.56,11.63-7.38,3.78-15.2,6.68-22.65,10.34-8.14,4-16.06,8.46-24.09,12.68-7,3.71-14,7.68-21,11.48-4.43,2.39-8.77,5-13.14,7.57-7.5,4.37-15.7,7.4-23,12.21-3,2-4.9,4.54-3.1,8.86,8,19.13,14.64,38.69,20.93,58.44,4,12.62,6.84,25.55,10.76,38.18,1.36,4.4,1.22,9.2,3.27,13.45a9.46,9.46,0,0,0,8.28,5.7c7,.35,13.88-1.33,20.81-2.14,6.2-.72,12.36-1.75,18.57-2.25,8.19-.66,16.11-2.8,24.19-4,5-.73,9.94-1.38,14.91-2,9.59-1.27,19.23-2.12,28.81-3.58a72.37,72.37,0,0,1,12.18-1c3.71.07,5.28,1.81,5.82,5.14,1.91,11.69,4.21,23.29,5.39,35.12,1,10.3,2.57,20.53,3,30.93.54,13.2,2.08,26.35,2.11,39.59,0,.53.13,1,.73,1.07Z"/><path class="cls-1" d="M697.59,1614.08a8.36,8.36,0,0,0-.19-6.73c-1.7-3.57-.41-7.51-.27-11.22.24-6.36.79-12.67.1-19-.14-1.28.31-2.61.31-3.92,0-11,.24-22-.76-33-.31-3.31-2.25-5.59-5.23-7.18-8-4.28-17.12-6.13-25-10.93-14.63-8.89-25.82-20.29-30.62-37.26-1.41-5-4.08-9.68-5-14.82a86.54,86.54,0,0,1-1.45-23.25c.71-7.6-2.7-11.58-9-14.56-8.74-4.11-16.19-10.26-23.77-16.16-5.26-4.09-9.71-9-14.42-13.66-2.55-2.52-5.28-4.86-8-7.25-7.42-6.65-12.86-14.8-17.59-23.45-4.89-9-10.33-17.62-14.36-27.06a176.1,176.1,0,0,1-10.56-32.2c-1.65-7.67-1.62-15.33-1.42-23,.17-6.62-.85-13.18-.67-19.78.3-10.6-.81-21.15-1-31.74-.28-15.57-.39-31.13-.7-46.69-.29-14.66-1.09-29.31-1.54-44-.46-14.82-1.07-29.63-1.51-44.46-.4-13.23-.82-26.47-1.45-39.69-.58-12.16-1.18-24.3-1.51-36.47s-1.12-24.41-1.59-36.63c-.2-5.2-.47-10.42-.56-15.63-.34-19.57-1.17-39.14-1.77-58.7-.45-14.46-2.39-28.89-2-43.43.16-6.38.39-12.8,0-19.15-.91-13.2-1.27-26.42-2.51-39.61-.51-5.39,0-10.9-.41-16.36-1.44-17,.44-34.2-1-51.16-1.33-15.45-1.28-30.92-2.58-46.33,0-.5-.08-1-.07-1.5.3-15.59-.79-31.16-1-46.75-.16-12.87-1-25.74-1.5-38.62-.21-5.83-.17-11.69-.63-17.51-1.29-16.31-1.31-32.68-2-49-.44-10-.63-19.93-1.1-29.88-.7-15-.86-30-1.77-45-.6-9.8-.6-19.62-1.08-29.43-.78-15.74-1.61-31.49-2.39-47.23-.3-6-.21-11.94-.62-17.88-.86-12.82-1.1-25.65-1.59-38.48-.46-12.19-1.38-24.38-1.33-36.59.05-12.85-.68-25.67-1-38.51-.31-13.48-.77-27-1.5-40.46-.63-11.67-.91-23.35-1.52-35-.36-6.84,0-13.68-.58-20.49-1.1-13.75-1.2-27.53-1.79-41.29-.14-3.16-.39-6.31-.41-9.47-.07-16-.56-31.93-1-47.87-.35-13.11-.91-26.26-1.67-39.38-.55-9.58-.65-19.21-1.3-29.17,6.64,0,13.46,0,20.29,0,1.07,0,1.55.38,1.55,1.54,0,10.11-.34,20.24.24,30.32.88,15.16,1.09,30.34,2.29,45.48.65,8.18,1.33,16.43,1.33,24.67,0,15.8,1.72,31.53,1.91,47.29.06,5.78-.08,11.62.52,17.33.76,7.31.07,14.76,2.08,22,1.18,4.24,4.82,5.61,8.16,7.11,5.51,2.49,11.23,4.51,16.83,6.82,5.09,2.1,7.27.82,7.2-4.69-.16-13.88-.19-27.76-.78-41.61-.72-16.76-1-33.52-1.54-50.28-.51-16.58-.2-33.17-.76-49.73-.59-17.46-.83-34.92-1.36-52.38A8.72,8.72,0,0,0,540.71.1c6.8,0,13.16.06,19.52,0,2.17,0,1.62,1.4,1.62,2.52,0,9.55-.43,19.13.1,28.66,1,18.47.83,37,1.75,55.45.73,14.81-.14,29.7.52,44.51,1.08,24.3.22,48.59.79,72.88.07,3.26.28,6.63.67,9.91a8,8,0,0,0,4.44,6.48c4.88,2.66,9,6.58,14,9.05,2.59,1.28,5.55,1.53,8.21,2.88,1.95,1,3.92-1.24,3.95-4.28.05-6.9,0-13.79,0-20.69,0-16.87.41-33.75-.09-50.6-1.27-42-.29-84.05-.69-126.07-.09-9.27-.42-18.55-.78-27.82-.08-2.25.42-3,2.83-2.91,4.86.21,9.75.24,14.61,0,2.65-.14,3,.89,3,3.16-.1,13-.6,26,.07,39,1.09,21.33.07,42.65.75,64,.73,23.45.3,46.91.73,70.36.16,8.26-.76,16.55.53,24.82.49,3.14,2.68,4.05,4.8,4.88,2.42,1,3.67-1,4.85-2.92,4.52-7.36,9-14.79,13.85-21.9,2.54-3.7,5.55-7.12,8.29-10.72a12.77,12.77,0,0,0,2.8-8.16c0-20.25-.35-40.5.18-60.74.75-28.8.26-57.6.84-86.39a105,105,0,0,0-.09-12.29c-.18-1.89.4-3.26,3-3.06a98.53,98.53,0,0,0,10.87,0c1.83-.07,2.7.27,2.52,2.39-1.53,18.19,0,36.43-.88,54.61-1.21,24.38-.42,48.76-.49,73.13,0,5.95.68,8.21,6.56,9.81a3.94,3.94,0,0,0,3.92-1.06c7-5.86,13.29-12.58,20.4-18.39,2.32-1.9,2.67-5.94,2.68-9.33,0-11.37-.26-22.76.24-34.11.44-9.7-.36-19.39,0-29,.64-15.19.07-30.36.43-45.53.05-1.83.32-2.59,2.41-2.53,6,.16,12,.09,18,0,1.76,0,2,.2,1.8,2.25-.51,5.49-.37,11-.36,16.56,0,5.93.23,11.86.28,17.79.16,17.29-.75,34.58-.11,51.88.22,5.71.47,11.44.28,17.14-.21,6.15,3.46,9.22,8.07,12.07,5.4,3.33,10.57,7,15.86,10.56a20.57,20.57,0,0,0,3.18,1.69c3.2,1.4,5.12.41,5.34-3,.37-5.94.52-11.92,1-17.83.8-9.32-.86-18.55-.21-27.82.74-10.65-.24-21.28-.08-31.93.23-15.42.11-30.86,0-46.29,0-2.38.51-3.2,3-3.09,4.87.22,9.76.25,14.62,0,2.48-.13,2.77,1.46,2.27,2.74a9.3,9.3,0,0,0-.21,4c.29,14.45-1.89,28.87-.52,43.29.59,6.21-.46,12.28-.41,18.44.21,22.56.28,45.12,0,67.67-.1,8,1.7,15.64,2.45,23.46.19,1.92,1.45,3.87,2.6,5.54,4.29,6.21,8.79,12.27,13.1,18.47a78.57,78.57,0,0,1,4.93,8.11c1.28,2.43,3.55,4.05,5.77,3.85,1.9-.18,2.66-2.85,3-5.08a72.93,72.93,0,0,0,1.21-9.9c.22-14.14.62-28.27.93-42.41.23-10.61.21-21.23.62-31.83.84-21.94.34-43.89,1-65.83.23-7.84-.07-15.72.65-23.5.46-5-.58-9.79-.16-14.69.12-1.41.1-2.29,1.95-2.25,5.73.11,11.47,0,17.19,0-1,9.51-.38,18.8-.35,28.08,0,9.08-.15,18.15.2,27.24a182.72,182.72,0,0,1-.07,20.13c-.6,8.13.06,16.34-.32,24.49-.62,13.21-.2,26.43-.78,39.63-.42,9.66-1.61,19.29-1.91,29-.17,5.36.71,10.76,1.25,16.13.35,3.42-.68,6.7-.65,10.09.09,10.38.18,20.75,0,31.12-.1,5.42,6.31,13.19,12.31,11.8,3.5-.81,6.34-3.06,9.16-5.16,3-2.25,6.85-2.94,9.64-5.77s4.15-5.43,4.21-9.19c.2-12.13.44-24.25.85-36.37.29-8.54,1-17.06,1.3-25.6.23-7.91-.24-15.85.17-23.74.54-10.6.59-21.19.67-31.78,0-2.46.64-4.88.82-7.36.16-2.28-2.1-3.85-1.18-6.34.36-1-2-.42-2.9-1.68,6.58-1.7,4-7.47,4.43-11.3.91-7.61.77-15.39.94-23.1.34-15.76.21-31.54.12-47.3,0-2.43.58-3.12,3-3,5.85.18,11.72.06,17.43.06-.32,11-.46,21.72-1,32.47-.81,16.6-.32,33.22-.86,49.81-.3,8.92-.06,17.87-.71,26.76-.68,9.39,0,18.82-.8,28.15-.93,10.72-.25,21.41-.63,32.1-.36,10.2-1.17,20.39-.65,30.59.24,4.53.86,9.07,6.22,11,1.88.68,3.86,1.08,5.37.33,5.42-2.68,11.12-4.91,15.85-8.85,3.5-2.93,4.69-6.94,4.63-11.16-.12-9.36.48-18.68.86-28,.63-15.29,1.28-30.58,2.28-45.85.68-10.27,1.11-20.54,1.54-30.82.75-18,2.15-36,2.77-54,.35-10.2,1.48-20.4.8-30.63C925.38.3,925.7,0,927.21.06c6.24.07,12.49,0,18.65,0,.61,9-.61,17.87-1.1,26.71C944.18,37,944,47.28,943,57.49c-.62,6,.46,12.27-.35,18.27-1,7.66.43,15.37-1.15,22.95a10.45,10.45,0,0,0-.12,1.86c-.54,13.76-.91,27.53-1.66,41.28-.66,12.19-.85,24.39-1.45,36.57-.64,13.15-.82,26.33-1.57,39.46-.69,12-.75,24-2,35.89-.71,6.91-.37,13.94-.21,20.91.1,4.61-.89,9.1.15,13.92.65,3-.73,7-1.18,10.6-1.07,8.43-.9,16.86-1.13,25.29-.25,9.23-.53,18.46-.9,27.69-.66,16.38-1.18,32.78-2.17,49.14-.64,10.43-.94,20.86-1.49,31.28q-1,18-1.65,36c-.47,12.15-1,24.29-1.41,36.44-.51,14.67-1.85,29.31-2.42,44-.18,4.53-.28,9.08-.36,13.62-.12,7-.61,13.92-1,20.85-.67,11.53-.08,23.12-1.83,34.6-.48,3.18.06,6.5-.28,9.71-1.07,10.26-.1,20.6-1.38,30.86-.48,3.87,0,7.85-.1,11.77-.47,13.47-1.06,26.94-1.64,40.39-.5,11.41-.75,22.83-1.59,34.21-.38,5.06,0,10.17-1.35,15.24-.94,3.61.62,7.45.33,11.29-.62,8.17-.75,16.38-1.13,24.58-.14,3.24-.45,6.48-.59,9.72q-.58,14.16-1.08,28.31c-.41,11.46-.5,22.94-1.26,34.38q-1.49,22.53-2.31,45.09c-.35,9.77-1,19.54-1.48,29.31-.71,13.3-1.1,26.61-1.59,39.91-.44,12.15-.81,24.31-1.49,36.44-.93,16.52-1.41,33.05-2.15,49.57-.56,12.33-1.19,24.65-1.47,37-.32,14-1,28-1.59,42-.41,9.81-.94,19.62-1.32,29.43-.47,11.83-.81,23.66-1.25,35.49-.3,7.8-.17,15.66-1.18,23.36-.79,6.06-.55,12.11-1,18.14-.59,8.32-.65,16.71-.76,25.07-.06,3.93-1.37,7.93,0,11.88,1.24,3.66-1.58,6.55-2,10-.65,5.83-.65,11.72-1.8,17.53-1.59,8-4.57,15.63-7.27,23.26a108.06,108.06,0,0,1-14,26.74c-7.33,10.28-14.81,20.45-23.83,29.29-8.25,8.08-16.61,16-26.69,22-3.42,2.05-6.71,4.49-10.22,6.51-4.58,2.62-6.47,7-5.33,12.67,1.5,7.59.75,15.17-.25,22.69-2,14.9-8.4,28-17,40.08a67.06,67.06,0,0,1-13,13.81,174.7,174.7,0,0,1-17.82,12.49c-4.81,2.93-10.26,4.13-15.39,6.09-3.89,1.49-5.58,3.23-5.55,7.43.13,15.38,0,30.77-.06,46.15,0,7,.72,14,0,21-.19,1.8.85,3.31.77,5ZM693.48,162.13c-1.83,1.87-3.78,3.63-5.48,5.61a203.35,203.35,0,0,0-15.9,20.82c-4.66,7.1-10.63,13.2-15.21,20.42-7.14,11.23-13,23.18-20.32,34.33-2.29,3.5-3,8.23-3.55,12.61a6.07,6.07,0,0,0,1.41,4.48c3.7,4.58,7.29,9.28,11.39,13.49,11.32,11.61,22.75,23.07,32.71,35.94,9.05,11.66,17.88,23.44,25.12,36.34,2,3.51,3.69,7.18,5.81,10.59,3,4.81,7.66,5.44,9.8,1.52,2.34-4.28,4.56-8.63,7-12.85,5.3-9.12,11.16-17.88,17.3-26.46,5.52-7.73,11.22-15.33,17.44-22.51,6.88-8,13.78-15.88,22.43-22.1,4.21-3,7.31-6.87,6.42-12.9-.56-3.8-2.07-7.23-3-10.88-2.64-10.6-6.81-20.66-11-30.71-3.78-9-10.13-16.39-15.89-24a160.42,160.42,0,0,0-39.37-37c-5.18-3.46-10.83-9.2-18.46-4.62l-1.93,1.17-4.81,4.8Zm7.26,285.35c.36-6.23-.63-12.41-1-18.58a89.83,89.83,0,0,0-3-19.39c-4.46-15-10.63-29.46-17.38-43.57a154.53,154.53,0,0,0-23.66-35.71,329.61,329.61,0,0,0-36.57-36.08c-6.53-5.4-13.21-10.61-20.13-15.55s-13.77-10.27-21.28-14.33c-10.43-5.64-21.22-10.63-31.93-15.73A132,132,0,0,0,526,240.68c-4.84-1.42-6.86,0-7.7,4.88-.67,3.93-.37,8.08-1.11,11.8-1.61,8.14-1.13,16.28-.68,24.27.27,4.86,1.05,10,1.63,14.91,1.42,12.1,4.64,23.73,8.19,35.28,3.07,10,7.6,19.46,12.18,28.9a152.12,152.12,0,0,0,21.21,32.59,211.2,211.2,0,0,0,42.15,38.17A230.49,230.49,0,0,0,652.59,457c12.49,4.55,25.49,6.75,38.38,9.27,7.25,1.42,8.82.72,9.07-7.43C700.15,455,700.5,451.26,700.74,447.48ZM907.61,260v-.86c0-6.79-4.22-10.05-10.53-7.58a119.82,119.82,0,0,0-13.84,6.91c-9,4.94-18.13,9.5-27.41,13.87-11.81,5.56-23.05,12.38-34.13,19.39a192,192,0,0,0-18.35,12.9c-9.87,8-18.43,17.28-26.67,26.94-6.8,8-12.42,16.73-17.87,25.62-4.61,7.51-8.06,15.61-11.69,23.62a203.65,203.65,0,0,0-13.43,38.66c-2.32,10.2-2.92,20.63-4.54,30.93-1.86,11.74,4.75,15.83,13.76,14.61A157.38,157.38,0,0,0,786,452.53c14.06-6.27,27.66-13.53,40.08-22.94a196.71,196.71,0,0,0,39.87-39.67,201.89,201.89,0,0,0,25.67-46.64c5.3-13.5,8-27.74,11.52-41.74A152.81,152.81,0,0,0,907.61,260ZM701.34,781.44c-.36-6.53-.67-12.81-1.57-19.07-1.78-12.32-3.78-24.58-7.5-36.47A121.42,121.42,0,0,0,682,702.8a207.86,207.86,0,0,0-20.84-30.47c-6.45-7.85-14.34-14.46-22.24-20.9-9.1-7.42-18.17-14.95-28.12-21.14A305.57,305.57,0,0,1,562.61,593c-8.18-7.7-15.12-16.5-22.26-25.12a12.36,12.36,0,0,0-4.91-3.83c-3.13-1.26-4.56-.49-5.23,2.75-1.21,5.84-.91,11.71-.79,17.62.32,14.53-.39,29,1.63,43.56,1.8,13,4,26,7.89,38.43A182.14,182.14,0,0,0,557.47,707c10,16.29,22.74,30.24,36.93,42.9A181.79,181.79,0,0,0,632,775.34c13.08,6.79,27,11.28,41.13,15.4a82.33,82.33,0,0,0,20.44,3.53c4.76.16,6-1.13,7.28-5.66C701.53,786.11,700.92,783.65,701.34,781.44ZM896.42,592.51a71.84,71.84,0,0,0-1-13,8.51,8.51,0,0,0-5.56-6.86,4.77,4.77,0,0,0-5.36,1.53c-3,3.64-6.79,6.47-10,9.92-2.21,2.4-3.93,5.43-6.12,7.47s-5.41,3.66-8.06,5.59c-10.64,7.77-21.08,15.81-32.24,22.88-10.74,6.79-20,15.62-30.09,23.27-9.21,7-17.95,14.54-26.58,22.22a116.3,116.3,0,0,0-20.55,24.13c-5.24,8.15-9.1,17-12.77,25.86a96.25,96.25,0,0,0-5.94,20.88c-.78,4.74-1.28,9.54-1.73,14.35-1,10.79-3.27,21.45-2.92,32.38q.35,10.85,11.25,11.25c4.78.17,9.19-1.34,13.77-2.21,18.53-3.54,35.72-10.65,52-19.94A172,172,0,0,0,830.06,754a178.31,178.31,0,0,0,34.61-39.05A186.69,186.69,0,0,0,890,655.82C894.92,634.87,893.94,613.56,896.42,592.51ZM726.93,603.22c0,3.93-.23,8.94.05,13.92.36,6.49,2.26,10,10.33,10,2.47,0,4.92-.41,7.37-.66,16.46-1.67,31.52-7.88,46.38-14.44,10.89-4.8,20.94-11.25,30.59-18.29A181.07,181.07,0,0,0,852,565.25c11.68-13.56,20.67-28.79,28.08-45,5.13-11.23,8.4-23.05,11.08-35.06,1.06-4.79,3.13-9.55,3.13-14.33,0-7,1.76-13.58,3-20.28,2.2-12.14,4-24.28,3.63-36.68a6.48,6.48,0,0,0-4.33-6.24c-2.8-1.18-5.08.23-6.88,2.3a224.3,224.3,0,0,1-33.21,30.95c-10.45,8-21.73,14.83-32.83,21.83-14.33,9-29.44,16.75-42.4,27.94-11.7,10.11-23.09,20.37-32.84,32.48-12,15-16.66,32.64-20,50.86C726.63,583.3,726.7,592.74,726.93,603.22Zm-28.73,2.9c.75-6.79-1.05-14.61-1.34-22.51a62.78,62.78,0,0,0-2.18-13.85,155.27,155.27,0,0,0-14-34.64,123.43,123.43,0,0,0-19.53-27.2c-8-8.18-16.85-15.31-25.71-22.43-8.16-6.55-16.14-13.34-25.12-18.83-5.42-3.31-10.66-7-15.8-10.69-9.29-6.74-18.83-13.12-27.85-20.26-8.49-6.7-17.24-13.07-24.34-21.31a23.85,23.85,0,0,0-7.05-5.57c-3-1.62-6.46-.45-6.79,3.92a41,41,0,0,0-.27,8.49c1.5,11,.36,22.07,1.14,33.11a185.28,185.28,0,0,0,5.29,33.2,202.07,202.07,0,0,0,18,45.3c11,20.56,26.16,37.59,43.94,52.38A191,191,0,0,0,639,611.51c16.37,7.55,33.42,13,51.4,15.24,5.41.68,7.72-1.19,7.81-6.71C698.26,615.79,698.2,611.54,698.2,606.12ZM729,1101.74a31.58,31.58,0,0,1-.06,5.92c-1.05,5.28,5.53,10.26,9.95,9.11,3.61-.94,7.36-1,10.91-1.66a133.66,133.66,0,0,0,28.77-9.28c14.57-6.64,28.71-14.11,41.41-24.19a169.67,169.67,0,0,0,36.5-39.84A142.8,142.8,0,0,0,871,1013.6c5-13.46,9.46-27.12,10.92-41.44,1.12-11,1.16-22.1,1.66-33.17.45-9.8-.79-19.6,0-29.4a5.68,5.68,0,0,0-.16-2.22c-.63-1.84-1.73-3.24-3.86-3.52a4.92,4.92,0,0,0-4.9,1.86,153,153,0,0,1-21.49,21.17c-11.58,9.35-25.06,15.92-36.68,25.36-10.45,8.49-22.78,14.42-33.2,23.24-9.61,8.12-19.39,15.84-26.61,26.34a146,146,0,0,0-18.4,38c-4.72,14.53-8.26,29.34-8,44.9C730.31,1090.35,729.16,1096.05,729,1101.74Zm-29.3-174.28a101.58,101.58,0,0,0-5.52-36.13c-5.21-15.47-13.67-29.49-23.2-42.52a160,160,0,0,0-31.78-32.26C633,811.75,627.16,806.23,620,803s-11.71-10.33-19.71-12.88c-5.74-1.84-10.65-6.46-15.73-10.12-5.5-4-10.71-8.34-16.15-12.38-8.54-6.33-16.38-13.27-22-22.54-1.8-3-3.66-6.14-7-7.95-3.61-1.94-5.82-.8-6,3.24a141.15,141.15,0,0,0,1.08,28.37c1.47,9.34,1.83,18.81,3.69,28.19,2.14,10.86,3.21,21.88,7,32.43,2.67,7.32,5,14.77,8.08,22,3,7,7.22,13.3,11.15,19.77,7.06,11.61,16.05,21.68,25.64,31.13a166.24,166.24,0,0,0,26.14,21.15,222.84,222.84,0,0,0,37.32,19.39c11.58,4.73,23.94,6.76,36,9.66,7.67,1.83,10.91-.88,11.06-8.8C700.85,937.71,699.35,931.94,699.74,927.46Zm189.1-169.93h0c0-1.75.13-3.51,0-5.24-.22-2.42-1.85-3.92-3.9-4.88-2.21-1-3.82.18-5.18,1.8-2.3,2.75-4.48,5.61-6.9,8.26-8.44,9.21-17.41,17.81-27.89,24.75-8.25,5.46-16.63,10.69-25.22,15.59-4.13,2.35-7.69,5.53-11.87,7.85a156.41,156.41,0,0,0-28,19.62,233.69,233.69,0,0,0-33.38,37.41c-4.32,5.91-7.12,13-10.42,19.59a75.46,75.46,0,0,0-8.39,34.23c0,8.64-.93,17.26-.16,25.94.54,6.08,4.72,10.5,10.95,10.86,7.83.44,14.86-2.46,22.24-4.29,17.71-4.39,33.69-12.4,49-21.95A150.81,150.81,0,0,0,843,899.16c5.25-5.95,10.77-11.81,14.87-18.47,9.75-15.79,19.66-31.48,24-50.08,3.89-16.55,6.59-33.11,6.93-50.07C889,772.87,888.84,765.2,888.84,757.53ZM540.15,922.83c0,1.72.35,3.43.37,5.1.08,6.8,2.6,13.27,3,19.88a278.62,278.62,0,0,0,3.8,33.56,145.87,145.87,0,0,0,6.73,25,173.84,173.84,0,0,0,31.5,52.81c8.67,10,17.84,19.47,28.69,27a182.55,182.55,0,0,0,25,14.93c5.38,2.58,10.38,6.15,16,8a321.49,321.49,0,0,0,39.28,10.36c3.77.74,6.06-.56,6-4.3-.25-9.48.65-18.94.19-28.42a158.11,158.11,0,0,0-4.66-32.26c-2.39-9.23-7.31-17.26-12-25.41-5.14-9-10.56-17.76-17.57-25.39-7.84-8.53-15.55-17.24-24.9-24.16-6.48-4.8-12.79-9.82-19.72-14.05-11-6.74-21.82-13.84-33.37-19.74a78.71,78.71,0,0,1-28.38-24.34c-3.14-4.36-5.5-9.36-10.46-12.24-3.77-2.19-6.22-1.73-7.91,2.37C540.29,915.14,540.29,919,540.15,922.83Zm335.16,183.91c-.42-7.36,1-16.31-1.11-25.15-.64-2.73-1.4-5.28-4.42-5.91s-4.22,1.66-5.63,3.81c-4.88,7.46-11.25,13.64-17.8,19.54-5.79,5.21-12.44,9.37-18.8,13.87-8.49,6-17.53,10.9-26.52,16-6.2,3.49-12.75,6.35-18.47,10.7-10.74,8.16-20.71,17.19-29.08,27.75a104.45,104.45,0,0,0-19.92,40.16c-1.63,6.6-3.2,13.18-2.92,20.06.1,2.6,1.38,5.15.61,7.73-2.33,7.75-.9,15.7-1.16,23.52-.25,7.57,5.9,12.29,12.32,10.84,11.07-2.51,22-5.23,32.62-9.5a158.41,158.41,0,0,0,38.72-22.29,165.16,165.16,0,0,0,32.82-34.61c9.87-13.89,17.93-28.59,23-44.85,3-9.49,4.42-19.33,5.56-29.14C876,1122.33,875.31,1115.26,875.31,1106.74Zm-4.52,144.2c0-7.69,0-13.92,0-20.16a6.84,6.84,0,0,0-4-6.45c-2.66-1.22-4.08.89-5.8,2.7-4,4.23-7.13,9.16-11,13.55-10.37,11.85-22.79,21-35.94,29.23-7.52,4.72-15.42,8.81-22.95,13.5-10.74,6.69-21.6,13.2-30.36,22.64-6,6.51-12,13.11-16.12,20.91-7,13.37-12.23,27.42-12.82,42.8-.51,13.06-1.49,26.12-1.13,39.19.23,8.4,4.37,12.64,11.25,11.61,9.55-1.43,19-3.52,27.93-7.31a166.17,166.17,0,0,0,25.32-12.9,194.35,194.35,0,0,0,26.46-20.94,139.86,139.86,0,0,0,24.14-29.15c9.41-15.08,16.53-31,20-48.43C869.14,1284.5,871.71,1267.15,870.79,1250.94ZM545.37,1081.27c.56,1.61.18,3.47.4,5.32.85,7.11,2.58,14.1,3.26,21.17,1.11,11.48,1.57,23,4.31,34.26,4.66,19,11.23,37.3,23,53.26,1.83,2.47,4,4.72,5.59,7.32,4.48,7.26,10.33,13.38,16.48,19.11a200.25,200.25,0,0,0,25.07,20.07c6.8,4.54,13.49,9.13,21,12.63,10.89,5,21.92,9.37,33.59,12,5.49,1.26,10.76,3.63,16.58,3.34,3.3-.16,4.85-1.73,5-5s-.46-6.67-.63-10a135,135,0,0,0-3.55-26c-2-8.06-4.37-16-6.76-24a127.74,127.74,0,0,0-10.78-24.8c-3.35-6.08-8.2-11-12.39-16.37-2-2.59-3.84-5.54-6.56-7.51-7.18-5.21-14.08-10.77-21.32-15.9-15.65-11.07-31.92-21.18-47.83-31.84-7.32-4.9-14.63-10-20.08-17.35a169,169,0,0,0-15.3-17.15c-1.88-1.91-4.18-2.62-6.43-1.73-2,.8-2.27,3.23-2.51,5.27C545.45,1078.57,545.45,1079.82,545.37,1081.27Zm139.43,340a27.46,27.46,0,0,0,9.2-.76,6,6,0,0,0,5.22-5c.61-2.55-.13-4.79-.13-7.16,0-9.81-2-19.4-4.16-28.81a158,158,0,0,0-15.07-39.5c-4.1-7.57-8.21-15.19-13.87-21.62a235.25,235.25,0,0,0-21-21,159,159,0,0,0-22-16.69c-9.6-5.87-19.21-11.71-28.78-17.64-12.36-7.68-22.6-17.55-31.92-28.5-2.09-2.45-4.06-5-6.86-6.6-3.57-2.1-6.38-1-6.27,3.11a119.49,119.49,0,0,0,1.72,19.35c2.56,13.1,3.52,26.41,6.17,39.48,2.12,10.41,4.38,20.74,8.77,30.46,2.58,5.72,5.83,11.15,8.3,16.91,2.82,6.58,6.87,12.36,10.88,18.15,4.3,6.22,8.9,12.2,14.83,17.1,4,3.29,7.23,7.45,11.06,10.92a105.29,105.29,0,0,0,10.65,8.42c5.45,3.77,9.23,9.52,14.92,12.84,8.91,5.2,18.2,9.8,28.15,12.69C671.06,1419.31,677.43,1421.94,684.8,1421.24Zm29.52,82.61c3.42.53,6.64-.91,10-.86,4.79.06,9.18-1.8,13.18-4.21,6-3.65,11-8.58,15.94-13.6,7.25-7.36,10-16.56,11.43-26.29.37-2.58-.09-5.82-3.16-7.55-2.39-1.35-4.77-.81-7.18-.42-8.54,1.38-16.31,5.38-24.85,7a114.3,114.3,0,0,1-39.82.61c-6-1-12.16-2.36-18.4-2-3.12.19-5,1.92-5.38,5-.78,6.76,2.58,12.42,5.35,18.15,4,8.28,11.2,13.48,19.16,17.24C698.07,1500.42,705.84,1503.55,714.32,1503.85Zm-27.21-511.8c-.86,16,15.48,28.72,29,28.75,13.09,0,26.58-12.64,26.19-25.11-.49-15.22-14.23-29.58-29.53-29.24C697.92,966.78,688,974.28,687.11,992.05Zm22.76-191c-11.94-.09-21.77,11.5-21.52,26.71.21,12.79,9.65,25.52,27.1,25.87,15.33.32,24.61-12.44,25.25-23.9C741.64,812.83,726.75,801.25,709.87,801.07Zm31.2,352.29c1.18-13.78-13.3-27.44-28.53-27.39-11.8,0-25,10.17-24,27,.66,12,14.18,26.07,29.5,25.45C729.58,1178,741.9,1167.05,741.07,1153.36ZM714.4,1330.7a24.5,24.5,0,0,0,7.22-.56c5.54-1.3,8.38-5.59,11.8-9.51,5.55-6.37,7.52-19.48,3.4-27-3.18-5.85-8.26-9.43-13.64-12.68-4.55-2.74-6.9-2.74-12.9-1.34a2.63,2.63,0,0,1-1.72-.51c-.57-.27-1-.82-1.94-.59-7.07,1.74-13,5.31-16.42,11.79A27.44,27.44,0,0,0,714.4,1330.7Zm-.53-802.5c10.35.17,17-3.43,21.67-9.56,6.26-8.14,5.57-17.26,1.22-26.1-3.26-6.64-9.34-10.12-15.79-13.19-9.32-4.44-19-1.62-25.88,3.75-8.87,6.9-9,20.89-5.2,28.49C695.19,522.18,704.68,526.88,713.87,528.2ZM688.53,664.73c.6,3-.63,6.53,1.36,10,3.23,5.66,7.92,9.37,13.42,12.65,14.16,8.45,29.18.24,33.72-12.27,3.25-9,1-20.75-8.22-27.43-5.71-4.12-11.65-7.75-19.64-6.51C696,643.23,688.47,651.1,688.53,664.73Z"/><path class="cls-1" d="M478.46,282.63c.69,11.13,1.59,22.24,1.94,33.37.11,3.39.68,6.75.46,10.17-.6,9.14.58,18.26.95,27.38.36,8.91.19,17.86.93,26.72.41,5,.12,10,.7,15a68.38,68.38,0,0,1,.37,9.44,7,7,0,0,1-3.85,6c-12.94,7-24.7,15.79-36.88,23.91-7.41,4.95-13.85,11.41-20.77,17.11-9.75,8-18.78,16.81-27.84,25.51-5.51,5.29-11.18,10.61-15.94,16.78-3.37,4.37-7.28,8.36-10.91,12.56a361.91,361.91,0,0,0-25.39,33.16c-12.15,17.87-23.4,36.31-32.72,55.85-7.54,15.81-14.95,31.67-20.75,48.25a487.31,487.31,0,0,0-15.42,51.86c-3,13.19-5.37,26.51-7.27,39.94-1.82,12.83-2.65,25.66-3.62,38.54a378.38,378.38,0,0,0-.4,41.1,426.51,426.51,0,0,0,4.09,44c2,14.48,4.29,28.89,7.84,43,3,12,6.66,23.88,10.54,35.63a456.61,456.61,0,0,0,20.15,50.67,443.84,443.84,0,0,0,22.95,42.49c4.29,7,9.35,13.72,12.41,21.52a12.75,12.75,0,0,0,2.87,3.81c8,8.31,14.2,18.06,21.44,27,4.31,5.33,9,10.31,13.53,15.37,6.19,6.86,11.64,14.28,17.63,21.27a142.61,142.61,0,0,0,15.49,15.6c8.75,7.49,17.56,15,27.09,21.48,14.07,9.48,28.44,18.55,43,27.31,9.05,5.45,18.16,10.77,27.57,15.53,4.79,2.43,6.62,6,6.77,11.13.47,17,1,33.94,1.79,50.9.3,6.8-.12,13.65.53,20.39.87,9,0,17.93.75,26.83a88.75,88.75,0,0,0,5.29,23.38c3.92,10.63,7.88,21.17,13.6,31.09,5.43,9.43,10.61,19,16.9,27.9a128.75,128.75,0,0,0,25.19,26.1A165.86,165.86,0,0,1,592.2,1429a7.64,7.64,0,0,1,2,5.72c-.27,6.89-2,13.53-3.26,20.25-2.22,11.92-4.41,23.86-6.68,35.78-.45,2.39-1.43,4.68-1.78,7.07-.54,3.71-3,4.29-5.9,3.76-12.88-2.3-25.72-4.73-38.41-8-14.8-3.83-29.44-8.14-44-12.83-7.8-2.51-15.7-4.75-23.37-7.63-9.52-3.58-19.3-6.51-28.39-11.21-3.86-2-4.59-4-2.86-8,6.19-14.59,12.63-29.1,18.47-43.83,4.5-11.34,8.18-23,12.35-34.47,2.42-6.7,5.63-13.09,7.71-19.93,1.55-5.11,2.83-10.29,4.93-15.25s.23-8.14-5.36-10.47c-15.64-6.51-30.27-15-45.14-23q-21-11.34-40.91-24.34c-5.91-3.86-11.3-8.52-17.6-11.81-4.27-2.22-5.68-1.53-9.46,1.68a95.48,95.48,0,0,0-11.9,12.82c-5.83,7.18-11.47,14.51-17.37,21.62-6.92,8.31-13.38,17-20.35,25.26-6,7.17-11.36,15-17.07,22.42-3.66,4.78-7.43,9.49-11.23,14.17-1.93,2.39-4.2,2.45-6.67.67-10.81-7.79-21-16.35-31-25.12s-19.71-17.66-29.31-26.79c-12.23-11.61-23.53-24.07-34.85-36.52a46.22,46.22,0,0,1-5.62-7.28c-2-3.38.4-5.88,2.57-8,6.11-6,12.43-11.85,18.54-17.88,9-8.85,17.5-18.19,26.87-26.59,6.69-6,11.66-13.51,18.4-19.37a186.21,186.21,0,0,0,17.84-17.13c2.05-2.33,4.25-4.53,6.15-7,1.29-1.66,2-3.39,0-5.5-12.49-13.26-22.82-28.21-33.22-43.1-11.65-16.67-21.79-34.29-32.33-51.66-3-4.94-7.25-5.58-12.3-3.64-12.28,4.7-23.61,11.36-35.78,16.29-10.68,4.31-20.76,10.09-31.21,15-7.83,3.67-15.92,6.8-23.74,10.49-5.43,2.56-10.32,6.24-16.13,8.07-6.54,2.06-7.69,1.73-10.81-4.34a628.76,628.76,0,0,1-29.55-67.57A558.29,558.29,0,0,1,26.21,993.5c-.93-3.7.65-6.07,4.86-7.16,12.85-3.32,25.73-6.51,38.52-10,14.89-4.08,29.33-9.55,44-14.35,9.54-3.13,19-6.43,28.62-9.42a23.54,23.54,0,0,0,3.66-1.43c8.34-4.29,6.38-5.64,4.61-14.72-2.38-12.18-5.06-24.29-7.24-36.52-2.39-13.41-4.12-26.9-5.83-40.39-.81-6.33-1.3-12.72-1.5-19.1-.16-4.8-4.39-8-8.4-8.5a126.3,126.3,0,0,0-18.14-.82c-13.11.21-26.09-1.3-39.07-2.94a29.23,29.23,0,0,0-4.49,0c-10.93.39-21.8-.8-32.66-1.63-8.59-.66-17.14-2-25.78-2.12-1.73,0-3.29-.84-5.07-.89-1.22,0-2.3-.92-2.27-2.75.19-9.26-.48-18.53.78-27.76a37.72,37.72,0,0,0,0-4.12c.33-11.49,1.37-22.89,2.78-34.32C4.74,745.28,6,736,6.88,726.76c.88-8.75,2.81-17.35,4.63-26,.78-3.69,1.14-7.48,2.07-11.13,2-7.92,1.46-6.58,9-6.16,3.81.2,7.64.46,11.46.52,7.39.13,14.57,1.77,21.83,2.79,4.85.68,9.73,1.14,14.58,1.75,5.82.74,11.69,1.22,17.42,2.39a129.89,129.89,0,0,0,15.24,1.95c10.41.87,20.62,2.92,31,4.15,5.31.62,7.73-1,9.36-6.2,7.39-23.38,11.47-47.67,19.79-70.81,4.1-11.39,7.84-22.92,12.12-34.25a8.73,8.73,0,0,0-3.88-11.06C160,567.94,148,562.25,136,556.64c-11.24-5.24-22.65-10.07-33.69-15.78C90.2,534.6,77.6,529.32,65.21,523.62c-.1,0-.25,0-.37,0-7.61-2.77-8.54-4.22-5.34-11.47,7.32-16.55,14.94-33,23.57-48.9,5.67-10.49,11.45-20.91,17.52-31.17,6.61-11.19,13.7-22.08,21-32.83a19,19,0,0,1,3.73-4.34,4,4,0,0,1,4.74-.52c15,6.67,28.4,15.83,41.51,25.61,7.43,5.55,15.58,10.17,23.48,15.09q16.08,10,32.28,19.79c1.64,1,3.46,1.7,5.16,2.65,7.91,4.39,9.5,3.44,17.06-5.54S263.9,433.84,271.37,425c14.69-17.41,30.57-33.66,46.85-49.54,1.94-1.9,4.06-3.62,6-5.48,2.3-2.14,2.82-4.49.76-7.13-7-9-14.1-17.91-21-27-5.88-7.73-12.38-14.95-18.43-22.54-6.25-7.84-12.88-15.4-19.19-23.22-6.46-8-13.23-15.72-19.77-23.65-3.1-3.76-3-5.82.36-8.88,9.44-8.48,19.19-16.59,29.35-24.21,8.68-6.51,17.18-13.25,26.14-19.38,12.75-8.71,25.3-17.7,38.79-25.29,6.24-3.51,12.16-7.56,18.72-10.53,2.84-1.29,4.7-.34,6.2,1.7,10.46,14.18,21,28.26,31.11,42.71,3.74,5.36,6.86,11.17,10.63,16.58,8.2,11.79,16.13,23.77,24,35.8,4,6.16,9.21,9.39,16.76,8.66,3.25-.32,5.42-2.59,8.25-3.65,5.3-2,10.3-4.76,15.55-6.87,4.39-1.76,5.75-.76,6.1,3.89.14,1.87,0,3.75,0,5.63Z"/><path class="cls-2" d="M700.74,447.48c-.24,3.78-.59,7.56-.7,11.35-.25,8.15-1.82,8.85-9.07,7.43-12.89-2.52-25.89-4.72-38.38-9.27a230.49,230.49,0,0,1-50.71-25.51,211.2,211.2,0,0,1-42.15-38.17,152.12,152.12,0,0,1-21.21-32.59c-4.58-9.44-9.11-18.88-12.18-28.9-3.55-11.55-6.77-23.18-8.19-35.28-.58-5-1.36-10.05-1.63-14.91-.45-8-.93-16.13.68-24.27.74-3.72.44-7.87,1.11-11.8.84-4.88,2.86-6.3,7.7-4.88a132,132,0,0,1,19.76,7.86c10.71,5.1,21.5,10.09,31.93,15.73,7.51,4.06,14.31,9.35,21.28,14.33s13.6,10.15,20.13,15.55a329.61,329.61,0,0,1,36.57,36.08,154.53,154.53,0,0,1,23.66,35.71c6.75,14.11,12.92,28.53,17.38,43.57a89.83,89.83,0,0,1,3,19.39C700.11,435.07,701.1,441.25,700.74,447.48Z"/><path class="cls-2" d="M907.61,260a152.81,152.81,0,0,1-4.49,41.57c-3.52,14-6.22,28.24-11.52,41.74a201.89,201.89,0,0,1-25.67,46.64,196.71,196.71,0,0,1-39.87,39.67C813.64,439,800,446.26,786,452.53A157.38,157.38,0,0,1,742.91,465c-9,1.22-15.62-2.87-13.76-14.61,1.62-10.3,2.22-20.73,4.54-30.93a203.65,203.65,0,0,1,13.43-38.66c3.63-8,7.08-16.11,11.69-23.62,5.45-8.89,11.07-17.63,17.87-25.62,8.24-9.66,16.8-18.94,26.67-26.94a192,192,0,0,1,18.35-12.9c11.08-7,22.32-13.83,34.13-19.39,9.28-4.37,18.45-8.93,27.41-13.87a119.82,119.82,0,0,1,13.84-6.91c6.31-2.47,10.55.79,10.53,7.58Z"/><path class="cls-2" d="M701.34,781.44c-.42,2.21.19,4.67-.52,7.17-1.29,4.53-2.52,5.82-7.28,5.66a82.33,82.33,0,0,1-20.44-3.53c-14.1-4.12-28.05-8.61-41.13-15.4a181.79,181.79,0,0,1-37.57-25.4c-14.19-12.66-26.91-26.61-36.93-42.9a182.14,182.14,0,0,1-18.53-40.6C535,654,532.85,641,531.05,628c-2-14.52-1.31-29-1.63-43.56-.12-5.91-.42-11.78.79-17.62.67-3.24,2.1-4,5.23-2.75a12.36,12.36,0,0,1,4.91,3.83c7.14,8.62,14.08,17.42,22.26,25.12a305.57,305.57,0,0,0,48.2,37.26c10,6.19,19,13.72,28.12,21.14,7.9,6.44,15.79,13.05,22.24,20.9A207.86,207.86,0,0,1,682,702.8a121.42,121.42,0,0,1,10.26,23.1c3.72,11.89,5.72,24.15,7.5,36.47C700.67,768.63,701,774.91,701.34,781.44Z"/><path class="cls-2" d="M896.42,592.51c-2.48,21-1.5,42.36-6.46,63.31a186.69,186.69,0,0,1-25.29,59.09A178.31,178.31,0,0,1,830.06,754a172,172,0,0,1-25.52,18.24c-16.24,9.29-33.43,16.4-52,19.94-4.58.87-9,2.38-13.77,2.21q-10.92-.4-11.25-11.25c-.35-10.93,1.91-21.59,2.92-32.38.45-4.81.95-9.61,1.73-14.35a96.25,96.25,0,0,1,5.94-20.88c3.67-8.91,7.53-17.71,12.77-25.86a116.3,116.3,0,0,1,20.55-24.13c8.63-7.68,17.37-15.25,26.58-22.22,10.12-7.65,19.35-16.48,30.09-23.27,11.16-7.07,21.6-15.11,32.24-22.88,2.65-1.93,5.83-3.52,8.06-5.59s3.91-5.07,6.12-7.47c3.18-3.45,7-6.28,10-9.92a4.77,4.77,0,0,1,5.36-1.53,8.51,8.51,0,0,1,5.56,6.86A71.84,71.84,0,0,1,896.42,592.51Z"/><path class="cls-2" d="M726.93,603.22c-.23-10.48-.3-19.92,1.42-29.21,3.38-18.22,8-35.9,20-50.86,9.75-12.11,21.14-22.37,32.84-32.48,13-11.19,28.07-18.91,42.4-27.94,11.1-7,22.38-13.81,32.83-21.83A224.3,224.3,0,0,0,889.67,410c1.8-2.07,4.08-3.48,6.88-2.3a6.48,6.48,0,0,1,4.33,6.24c.37,12.4-1.43,24.54-3.63,36.68-1.22,6.7-3,13.29-3,20.28,0,4.78-2.07,9.54-3.13,14.33-2.68,12-5.95,23.83-11.08,35.06-7.41,16.22-16.4,31.45-28.08,45a181.07,181.07,0,0,1-30.33,28.48c-9.65,7-19.7,13.49-30.59,18.29-14.86,6.56-29.92,12.77-46.38,14.44-2.45.25-4.9.65-7.37.66-8.07,0-10-3.49-10.33-10C726.7,612.16,726.93,607.15,726.93,603.22Z"/><path class="cls-2" d="M698.2,606.12c0,5.42.06,9.67,0,13.92-.09,5.52-2.4,7.39-7.81,6.71-18-2.26-35-7.69-51.4-15.24a191,191,0,0,1-42.34-26.28c-17.78-14.79-32.91-31.82-43.94-52.38a202.07,202.07,0,0,1-18-45.3,185.28,185.28,0,0,1-5.29-33.2c-.78-11,.36-22.11-1.14-33.11a41,41,0,0,1,.27-8.49c.33-4.37,3.76-5.54,6.79-3.92a23.85,23.85,0,0,1,7.05,5.57c7.1,8.24,15.85,14.61,24.34,21.31,9,7.14,18.56,13.52,27.85,20.26,5.14,3.74,10.38,7.38,15.8,10.69,9,5.49,17,12.28,25.12,18.83,8.86,7.12,17.75,14.25,25.71,22.43a123.43,123.43,0,0,1,19.53,27.2,155.27,155.27,0,0,1,14,34.64,62.78,62.78,0,0,1,2.18,13.85C697.15,591.51,699,599.33,698.2,606.12Z"/><path class="cls-2" d="M702.14,154.23c7.63-4.58,13.28,1.16,18.46,4.62a160.42,160.42,0,0,1,39.37,37c5.76,7.65,12.11,15,15.89,24,4.2,10,8.37,20.11,11,30.71.91,3.65,2.42,7.08,3,10.88.89,6-2.21,9.87-6.42,12.9-8.65,6.22-15.55,14.14-22.43,22.1-6.22,7.18-11.92,14.78-17.44,22.51-6.14,8.58-12,17.34-17.3,26.46-2.44,4.22-4.66,8.57-7,12.85-2.14,3.92-6.81,3.29-9.8-1.52-2.12-3.41-3.84-7.08-5.81-10.59-7.24-12.9-16.07-24.68-25.12-36.34-10-12.87-21.39-24.33-32.71-35.94-4.1-4.21-7.69-8.91-11.39-13.49a6.07,6.07,0,0,1-1.41-4.48c.57-4.38,1.26-9.11,3.55-12.61,7.3-11.15,13.18-23.1,20.32-34.33,4.58-7.22,10.55-13.32,15.21-20.42A203.35,203.35,0,0,1,688,167.74c1.7-2,3.65-3.74,5.48-5.61,1.32,0,2.5-.08,1.92-1.93l4.81-4.8C701.68,156.39,701.81,155.14,702.14,154.23Z"/><path class="cls-2" d="M729,1101.74c.12-5.69,1.27-11.39,1.19-17-.23-15.56,3.31-30.37,8-44.9a146,146,0,0,1,18.4-38c7.22-10.5,17-18.22,26.61-26.34,10.42-8.82,22.75-14.75,33.2-23.24,11.62-9.44,25.1-16,36.68-25.36a153,153,0,0,0,21.49-21.17,4.92,4.92,0,0,1,4.9-1.86c2.13.28,3.23,1.68,3.86,3.52a5.68,5.68,0,0,1,.16,2.22c-.77,9.8.47,19.6,0,29.4-.5,11.07-.54,22.17-1.66,33.17-1.46,14.32-5.87,28-10.92,41.44a142.8,142.8,0,0,1-14.48,28.2,169.67,169.67,0,0,1-36.5,39.84c-12.7,10.08-26.84,17.55-41.41,24.19a133.66,133.66,0,0,1-28.77,9.28c-3.55.71-7.3.72-10.91,1.66-4.42,1.15-11-3.83-9.95-9.11A31.58,31.58,0,0,0,729,1101.74Z"/><path class="cls-2" d="M699.74,927.46c-.39,4.48,1.11,10.25,1,16.12-.15,7.92-3.39,10.63-11.06,8.8-12.11-2.9-24.47-4.93-36-9.66a222.84,222.84,0,0,1-37.32-19.39,166.24,166.24,0,0,1-26.14-21.15c-9.59-9.45-18.58-19.52-25.64-31.13-3.93-6.47-8.16-12.76-11.15-19.77-3.06-7.19-5.41-14.64-8.08-22-3.84-10.55-4.91-21.57-7-32.43-1.86-9.38-2.22-18.85-3.69-28.19a141.15,141.15,0,0,1-1.08-28.37c.18-4,2.39-5.18,6-3.24,3.35,1.81,5.21,4.95,7,7.95,5.57,9.27,13.41,16.21,22,22.54,5.44,4,10.65,8.41,16.15,12.38,5.08,3.66,10,8.28,15.73,10.12,8,2.55,12.46,9.55,19.71,12.88s13,8.79,19.21,13.59A160,160,0,0,1,671,848.81c9.53,13,18,27.05,23.2,42.52A101.58,101.58,0,0,1,699.74,927.46Z"/><path class="cls-2" d="M888.84,757.53c0,7.67.13,15.34,0,23-.34,17-3,33.52-6.93,50.07-4.38,18.6-14.29,34.29-24,50.08-4.1,6.66-9.62,12.52-14.87,18.47a150.81,150.81,0,0,1-33.35,27.91c-15.27,9.55-31.25,17.56-49,21.95-7.38,1.83-14.41,4.73-22.24,4.29-6.23-.36-10.41-4.78-10.95-10.86-.77-8.68.19-17.3.16-25.94A75.46,75.46,0,0,1,736,882.28c3.3-6.63,6.1-13.68,10.42-19.59a233.69,233.69,0,0,1,33.38-37.41,156.41,156.41,0,0,1,28-19.62c4.18-2.32,7.74-5.5,11.87-7.85,8.59-4.9,17-10.13,25.22-15.59,10.48-6.94,19.45-15.54,27.89-24.75,2.42-2.65,4.6-5.51,6.9-8.26,1.36-1.62,3-2.84,5.18-1.8,2.05,1,3.68,2.46,3.9,4.88.16,1.73,0,3.49,0,5.24Z"/><path class="cls-2" d="M540.15,922.83c.14-3.8.14-7.69,1.6-11.25,1.69-4.1,4.14-4.56,7.91-2.37,5,2.88,7.32,7.88,10.46,12.24a78.71,78.71,0,0,0,28.38,24.34c11.55,5.9,22.33,13,33.37,19.74,6.93,4.23,13.24,9.25,19.72,14.05,9.35,6.92,17.06,15.63,24.9,24.16,7,7.63,12.43,16.42,17.57,25.39,4.67,8.15,9.59,16.18,12,25.41a158.11,158.11,0,0,1,4.66,32.26c.46,9.48-.44,18.94-.19,28.42.1,3.74-2.19,5-6,4.3a321.49,321.49,0,0,1-39.28-10.36c-5.59-1.86-10.59-5.43-16-8a182.55,182.55,0,0,1-25-14.93c-10.85-7.52-20-17-28.69-27a173.84,173.84,0,0,1-31.5-52.81,145.87,145.87,0,0,1-6.73-25,278.62,278.62,0,0,1-3.8-33.56c-.41-6.61-2.93-13.08-3-19.88C540.5,926.26,540.16,924.55,540.15,922.83Z"/><path class="cls-2" d="M875.31,1106.74c0,8.52.64,15.59-.16,22.49-1.14,9.81-2.59,19.65-5.56,29.14-5.09,16.26-13.15,31-23,44.85a165.16,165.16,0,0,1-32.82,34.61A158.41,158.41,0,0,1,775,1260.12c-10.58,4.27-21.55,7-32.62,9.5-6.42,1.45-12.57-3.27-12.32-10.84.26-7.82-1.17-15.77,1.16-23.52.77-2.58-.51-5.13-.61-7.73-.28-6.88,1.29-13.46,2.92-20.06a104.45,104.45,0,0,1,19.92-40.16c8.37-10.56,18.34-19.59,29.08-27.75,5.72-4.35,12.27-7.21,18.47-10.7,9-5.06,18-9.95,26.52-16,6.36-4.5,13-8.66,18.8-13.87,6.55-5.9,12.92-12.08,17.8-19.54,1.41-2.15,2.67-4.43,5.63-3.81s3.78,3.18,4.42,5.91C876.28,1090.43,874.89,1099.38,875.31,1106.74Z"/><path class="cls-2" d="M870.79,1250.94c.92,16.21-1.65,33.56-5,50.79-3.44,17.42-10.56,33.35-20,48.43a139.86,139.86,0,0,1-24.14,29.15,194.35,194.35,0,0,1-26.46,20.94,166.17,166.17,0,0,1-25.32,12.9c-9,3.79-18.38,5.88-27.93,7.31-6.88,1-11-3.21-11.25-11.61-.36-13.07.62-26.13,1.13-39.19.59-15.38,5.83-29.43,12.82-42.8,4.09-7.8,10.08-14.4,16.12-20.91,8.76-9.44,19.62-16,30.36-22.64,7.53-4.69,15.43-8.78,22.95-13.5,13.15-8.27,25.57-17.38,35.94-29.23,3.84-4.39,6.94-9.32,11-13.55,1.72-1.81,3.14-3.92,5.8-2.7a6.84,6.84,0,0,1,4,6.45C870.83,1237,870.79,1243.25,870.79,1250.94Z"/><path class="cls-2" d="M545.37,1081.27c.08-1.45.08-2.7.23-3.94.24-2,.47-4.47,2.51-5.27,2.25-.89,4.55-.18,6.43,1.73a169,169,0,0,1,15.3,17.15c5.45,7.31,12.76,12.45,20.08,17.35,15.91,10.66,32.18,20.77,47.83,31.84,7.24,5.13,14.14,10.69,21.32,15.9,2.72,2,4.55,4.92,6.56,7.51,4.19,5.39,9,10.29,12.39,16.37a127.74,127.74,0,0,1,10.78,24.8c2.39,8,4.72,16,6.76,24a135,135,0,0,1,3.55,26c.17,3.33.79,6.62.63,10s-1.71,4.89-5,5c-5.82.29-11.09-2.08-16.58-3.34-11.67-2.67-22.7-7-33.59-12-7.55-3.5-14.24-8.09-21-12.63a200.25,200.25,0,0,1-25.07-20.07c-6.15-5.73-12-11.85-16.48-19.11-1.61-2.6-3.76-4.85-5.59-7.32-11.81-16-18.38-34.22-23-53.26-2.74-11.22-3.2-22.78-4.31-34.26-.68-7.07-2.41-14.06-3.26-21.17C545.55,1084.74,545.93,1082.88,545.37,1081.27Z"/><path class="cls-2" d="M684.8,1421.24c-7.37.7-13.74-1.93-20.18-3.79-10-2.89-19.24-7.49-28.15-12.69-5.69-3.32-9.47-9.07-14.92-12.84a105.29,105.29,0,0,1-10.65-8.42c-3.83-3.47-7.08-7.63-11.06-10.92-5.93-4.9-10.53-10.88-14.83-17.1-4-5.79-8.06-11.57-10.88-18.15-2.47-5.76-5.72-11.19-8.3-16.91-4.39-9.72-6.65-20.05-8.77-30.46-2.65-13.07-3.61-26.38-6.17-39.48a119.49,119.49,0,0,1-1.72-19.35c-.11-4.09,2.7-5.21,6.27-3.11,2.8,1.64,4.77,4.15,6.86,6.6,9.32,11,19.56,20.82,31.92,28.5,9.57,5.93,19.18,11.77,28.78,17.64a159,159,0,0,1,22,16.69,235.25,235.25,0,0,1,21,21c5.66,6.43,9.77,14,13.87,21.62a158,158,0,0,1,15.07,39.5c2.18,9.41,4.17,19,4.16,28.81,0,2.37.74,4.61.13,7.16a6,6,0,0,1-5.22,5A27.46,27.46,0,0,1,684.8,1421.24Z"/><path class="cls-2" d="M714.32,1503.85c-8.48-.3-16.25-3.43-23.7-6.95-8-3.76-15.14-9-19.16-17.24-2.77-5.73-6.13-11.39-5.35-18.15.34-3,2.26-4.77,5.38-5,6.24-.38,12.38,1,18.4,2a114.3,114.3,0,0,0,39.82-.61c8.54-1.62,16.31-5.62,24.85-7,2.41-.39,4.79-.93,7.18.42,3.07,1.73,3.53,5,3.16,7.55-1.39,9.73-4.18,18.93-11.43,26.29-4.94,5-9.92,10-15.94,13.6-4,2.41-8.39,4.27-13.18,4.21C721,1502.94,717.74,1504.38,714.32,1503.85Z"/><path class="cls-2" d="M687.11,992.05c.87-17.77,10.81-25.27,25.71-25.6,15.3-.34,29,14,29.53,29.24.39,12.47-13.1,25.14-26.19,25.11C702.59,1020.77,686.25,1008,687.11,992.05Z"/><path class="cls-2" d="M709.87,801.07c16.88.18,31.77,11.76,30.83,28.68-.64,11.46-9.92,24.22-25.25,23.9-17.45-.35-26.89-13.08-27.1-25.87C688.1,812.57,697.93,801,709.87,801.07Z"/><path class="cls-2" d="M741.07,1153.36c.83,13.69-11.49,24.65-23.08,25.11-15.32.62-28.84-13.44-29.5-25.45-.93-16.88,12.25-27,24-27C727.77,1125.92,742.25,1139.58,741.07,1153.36Z"/><path class="cls-2" d="M714.4,1330.7a27.44,27.44,0,0,1-24.2-40.44c3.42-6.48,9.35-10,16.42-11.79.91-.23,1.37.32,1.94.59a2.63,2.63,0,0,0,1.72.51c6-1.4,8.35-1.4,12.9,1.34,5.38,3.25,10.46,6.83,13.64,12.68,4.12,7.56,2.15,20.67-3.4,27-3.42,3.92-6.26,8.21-11.8,9.51A24.5,24.5,0,0,1,714.4,1330.7Z"/><path class="cls-2" d="M713.87,528.2c-9.19-1.32-18.68-6-24-16.61-3.82-7.6-3.67-21.59,5.2-28.49,6.91-5.37,16.56-8.19,25.88-3.75,6.45,3.07,12.53,6.55,15.79,13.19,4.35,8.84,5,18-1.22,26.1C730.82,524.77,724.22,528.37,713.87,528.2Z"/><path class="cls-2" d="M688.53,664.73c-.06-13.63,7.46-21.5,20.64-23.55,8-1.24,13.93,2.39,19.64,6.51,9.26,6.68,11.47,18.45,8.22,27.43-4.54,12.51-19.56,20.72-33.72,12.27-5.5-3.28-10.19-7-13.42-12.65C687.9,671.26,689.13,667.69,688.53,664.73Z"/></g></g></svg>